<svg width="24" height="24" viewBox="0 0 24 24" fill="none" xmlns="http://www.w3.org/2000/svg">
<g clip-path="url(#clip0_224_2061)">
<path d="M15.6092 0.5C16.1131 0.5 16.5964 0.700178 16.9527 1.0565C17.1885 1.29233 17.3559 1.58377 17.4422 1.9H7.20918C6.44005 1.9 5.70243 2.20553 5.15857 2.74939C4.61471 3.29325 4.30918 4.03087 4.30918 4.8V18.633C3.99295 18.5468 3.70151 18.3793 3.46568 18.1435C3.10936 17.7872 2.90918 17.3039 2.90918 16.8V2.4C2.90918 1.89609 3.10936 1.41282 3.46568 1.0565C3.822 0.700178 4.30527 0.5 4.80918 0.5H15.6092Z" fill="#144557" stroke="#144557"/>
<path d="M13.2088 12.5001H13.7088V12.0001V6.0001V5.5001H13.2088H8.40879H7.90879V6.0001V12.0001V12.5001H8.40879H13.2088ZM19.2088 7.7001H19.7088V7.2001V6.0001V5.5001H19.2088H14.4088H13.9088V6.0001V7.2001V7.7001H14.4088H19.2088ZM19.2088 10.1001H19.7088V9.6001V8.4001V7.9001H19.2088H14.4088H13.9088V8.4001V9.6001V10.1001H14.4088H19.2088ZM19.2088 12.5001H19.7088V12.0001V10.8001V10.3001H19.2088H14.4088H13.9088V10.8001V12.0001V12.5001H14.4088H19.2088ZM19.2088 14.9001H19.7088V14.4001V13.2001V12.7001H19.2088H8.40879H7.90879V13.2001V14.4001V14.9001H8.40879H19.2088ZM19.2088 17.3001H19.7088V16.8001V15.6001V15.1001H19.2088H8.40879H7.90879V15.6001V16.8001V17.3001H8.40879H19.2088ZM19.2088 19.7001H19.7088V19.2001V18.0001V17.5001H19.2088H8.40879H7.90879V18.0001V19.2001V19.7001H8.40879H19.2088ZM20.5523 4.65659C20.9086 5.01291 21.1088 5.49619 21.1088 6.0001V21.6001C21.1088 22.104 20.9086 22.5873 20.5523 22.9436C20.196 23.2999 19.7127 23.5001 19.2088 23.5001H8.40879C7.90488 23.5001 7.42161 23.2999 7.06529 22.9436C6.70897 22.5873 6.50879 22.104 6.50879 21.6001V6.0001C6.50879 5.49619 6.70897 5.01291 7.06529 4.65659C7.42161 4.30028 7.90488 4.1001 8.40879 4.1001H19.2088C19.7127 4.1001 20.196 4.30028 20.5523 4.65659Z" stroke="#144557"/>
</g>
<defs>
<clipPath id="clip0_224_2061">
<rect width="24" height="24" fill="white" transform="translate(0.00878906)"/>
</clipPath>
</defs>
</svg>
