<svg width="33" height="32" viewBox="0 0 33 32" fill="none" xmlns="http://www.w3.org/2000/svg">
<path d="M21.2348 6.94602L23.1148 10.706C23.3681 11.226 24.0481 11.7193 24.6214 11.826L28.0215 12.386C30.1948 12.746 30.7015 14.3193 29.1415 15.8927L26.4881 18.546C26.0481 18.986 25.7948 19.8527 25.9415 20.4793L26.7014 23.7594C27.3014 26.346 25.9148 27.3593 23.6348 25.9993L20.4481 24.106C19.8748 23.7593 18.9148 23.7593 18.3414 24.106L15.1548 25.9993C12.8748 27.346 11.4881 26.346 12.0881 23.7594L12.8481 20.4793C12.9948 19.866 12.7414 18.9993 12.3014 18.546L9.64813 15.8927C8.08813 14.3327 8.59479 12.7593 10.7681 12.386L14.1681 11.826C14.7414 11.7327 15.4214 11.226 15.6748 10.706L17.5548 6.94602C18.5548 4.90602 20.2081 4.90602 21.2348 6.94602Z" stroke="#046BEC" stroke-width="2.5" stroke-linecap="round" stroke-linejoin="round"/>
<path d="M11.3828 6.66797H3.38281" stroke="#046BEC" stroke-width="2.5" stroke-linecap="round" stroke-linejoin="round"/>
<path d="M7.38281 25.332H3.38281" stroke="#046BEC" stroke-width="2.5" stroke-linecap="round" stroke-linejoin="round"/>
<path d="M4.71615 16H3.38281" stroke="#046BEC" stroke-width="2.5" stroke-linecap="round" stroke-linejoin="round"/>
</svg>
