<svg width="24" height="18" viewBox="0 0 24 18" fill="none" xmlns="http://www.w3.org/2000/svg">
<path d="M0 2.625C0 1.176 1.176 0 2.625 0H21.375C22.824 0 24 1.176 24 2.625V15.375C24 16.0712 23.7234 16.7389 23.2312 17.2312C22.7389 17.7234 22.0712 18 21.375 18H2.625C1.92881 18 1.26113 17.7234 0.768845 17.2312C0.276562 16.7389 0 16.0712 0 15.375L0 2.625ZM2.625 1.5C2.52554 1.5 2.43016 1.53951 2.35984 1.60984C2.28951 1.68016 2.25 1.77554 2.25 1.875V8.625V15.375C2.25 15.582 2.418 16.5 2.625 16.5H12H16.6875H21.375C21.4745 16.5 21.5698 16.4605 21.6402 16.3902C21.7105 16.3198 21.75 15.4745 21.75 15.375V1.875C21.75 1.77554 21.7105 1.68016 21.6402 1.60984C21.5698 1.53951 21.4745 1.5 21.375 1.5H12H2.625Z" fill="#144557"/>
</svg>
